<svg width="400" height="111" viewBox="0 0 400 111" fill="none" xmlns="http://www.w3.org/2000/svg">
<path fill-rule="evenodd" clip-rule="evenodd" d="M294.508 10.9728C295.275 9.81284 295.685 8.44904 295.685 7.05391C295.685 5.18309 294.949 3.3889 293.639 2.06604C292.33 0.743175 290.553 0 288.701 0C287.32 0 285.97 0.413703 284.821 1.1888C283.673 1.96389 282.778 3.06556 282.249 4.35449C281.721 5.64343 281.583 7.06173 281.852 8.43006C282.121 9.79838 282.787 11.0553 283.763 12.0418C284.74 13.0283 285.984 13.7001 287.339 13.9723C288.693 14.2445 290.098 14.1048 291.374 13.5709C292.65 13.037 293.74 12.1329 294.508 10.9728ZM342.192 11.5908C341.434 10.4442 341.029 9.09605 341.029 7.71693C341.028 6.80165 341.206 5.89519 341.552 5.04937C341.898 4.20355 342.406 3.43495 343.047 2.78749C343.687 2.14003 344.448 1.62641 345.285 1.27598C346.122 0.925548 347.019 0.745175 347.925 0.745175C349.291 0.744092 350.626 1.15206 351.761 1.91747C352.897 2.68287 353.783 3.77133 354.306 5.04516C354.829 6.31899 354.967 7.72095 354.701 9.0737C354.435 10.4264 353.778 11.6692 352.813 12.6448C351.848 13.6203 350.618 14.2849 349.279 14.5543C347.94 14.8238 346.552 14.686 345.291 14.1585C344.029 13.631 342.951 12.7374 342.192 11.5908Z" fill="#F8CC2D"/>
<path fill-rule="evenodd" clip-rule="evenodd" d="M244.969 24.2848C243.964 24.7105 242.936 25.1456 241.865 25.5498C241.865 23.6149 241.868 21.6686 241.871 19.7145L241.871 19.691C241.877 15.7419 241.883 11.7611 241.865 7.77782C241.854 5.45496 240.252 3.66771 238.234 3.60759C236.086 3.55294 234.728 5.11062 234.728 7.72316C234.702 19.5178 234.702 31.3089 234.728 43.0963C234.739 48.4744 236.93 52.9835 240.599 56.6727C246.94 63.051 256.918 64.4612 264.38 60.2691C272.567 55.678 276.674 46.6106 274.688 37.505C272.367 26.8362 261.599 19.7365 250.993 22.1468C248.954 22.5968 247.007 23.4214 244.969 24.2847L244.969 24.2848ZM241.865 42.0688C241.865 49.4855 247.541 55.3446 254.721 55.3555C258.191 55.3751 261.527 54.0015 263.994 51.5369C266.462 49.0723 267.859 45.7186 267.878 42.2136C267.897 38.7086 266.538 35.3393 264.098 32.847C261.658 30.3548 258.337 28.9436 254.867 28.9241C253.158 28.9095 251.463 29.2388 249.881 29.8929C248.299 30.5469 246.861 31.5126 245.653 32.7336C244.444 33.9546 243.488 35.4064 242.84 37.0044C242.193 38.6025 241.867 40.3148 241.881 42.0414L241.865 42.0688ZM3.59864 56.3774C1.36931 56.3337 0.113966 54.8799 0.113966 52.2455L0.0544451 52.1034C0.0280193 47.8539 0.0286956 43.6045 0.0293718 39.3557C0.0300802 34.9046 0.0307885 30.4543 0.000336127 26.0053C-0.0158968 24.0104 0.552256 22.409 2.48398 21.8569C4.4157 21.3049 5.91454 22.1138 6.81276 23.9502C6.96811 24.1706 7.14986 24.3707 7.35386 24.546C16.0601 19.78 23.9439 20.8021 30.8754 28.4101C33.5225 25.1204 37.2002 22.8399 41.3024 21.9444C51.0529 19.7964 61.4529 28.033 61.534 38.1279C61.5629 41.3239 61.5533 44.5198 61.5436 47.7141C61.5388 49.3107 61.534 50.9068 61.534 52.5024C61.5232 54.9619 60.2354 56.3501 58.071 56.3774C56.0094 56.4102 54.4348 54.8689 54.4348 52.5843C54.4078 48.0862 54.4078 43.5935 54.4078 39.0953C54.3915 33.5314 50.0573 29.0004 44.7383 28.9403C43.4075 28.9003 42.0821 29.1279 40.8391 29.6097C39.5961 30.0916 38.4603 30.8182 37.4977 31.7473C36.5351 32.6764 35.7648 33.7894 35.2318 35.0218C34.6987 36.2541 34.4135 37.5812 34.3925 38.9259C34.3601 41.8732 34.3709 44.8206 34.3817 47.7696C34.3871 49.2447 34.3925 50.7202 34.3925 52.1963C34.3763 55.022 33.1426 56.4212 30.7618 56.3774C28.5324 56.3337 27.2825 54.8799 27.2825 52.2455V39.1992C27.2555 34.0069 23.3487 29.4705 18.5113 28.9622C16.0261 28.6632 13.519 29.3002 11.4695 30.7512C9.42005 32.2022 7.97209 34.3654 7.40256 36.8271C7.15309 37.9652 7.17838 39.1711 7.20347 40.3679C7.21104 40.7286 7.21859 41.0885 7.21859 41.4455V44.5773V48.906V51.1196C7.2466 51.84 7.22309 52.5615 7.14824 53.2785C7.06789 54.177 6.66807 55.0158 6.02276 55.6396C5.32966 56.1736 4.46843 56.4357 3.59864 56.3774ZM120.188 56.3774C117.958 56.3337 116.708 54.8799 116.708 52.2455L116.676 52.1034C116.653 47.96 116.654 43.8166 116.655 39.6738V39.6705V39.6704V39.6703V39.6702V39.6701V39.67V39.67V39.6699C116.657 35.114 116.658 30.5589 116.627 26.0053C116.611 24.0104 117.174 22.409 119.105 21.8569C121.037 21.3049 122.536 22.1138 123.434 23.9502C123.583 24.1677 123.755 24.3676 123.948 24.546C132.66 19.78 140.538 20.8021 147.475 28.4102C150.121 25.1194 153.799 22.8387 157.902 21.9444C167.647 19.7964 178.047 28.033 178.134 38.1279C178.159 41.3228 178.151 44.5177 178.142 47.711V47.7141V47.7153V47.7166V47.7178V47.719V47.7202V47.7215V47.7227V47.7239C178.138 49.3172 178.134 50.9101 178.134 52.5024C178.123 54.9619 176.835 56.3501 174.671 56.3774C172.609 56.4102 171.056 54.869 171.029 52.5844C171.007 49.5874 171.015 46.5929 171.022 43.5975V43.5969V43.5963V43.5957V43.5951V43.5945V43.5939V43.5933V43.5927C171.026 42.0939 171.029 40.5949 171.029 39.0953C171.007 33.5314 166.679 29.0004 161.36 28.9403C160.025 28.8944 158.695 29.1176 157.447 29.5968C156.199 30.076 155.058 30.8016 154.091 31.7313C153.124 32.661 152.35 33.776 151.814 35.0113C151.278 36.2467 150.991 37.5774 150.971 38.9259C150.942 41.8733 150.951 44.8206 150.961 47.7696C150.966 49.2447 150.971 50.7202 150.971 52.1963C150.96 55.022 149.721 56.4212 147.345 56.3774C145.116 56.3337 143.861 54.8799 143.861 52.2455C143.861 50.7951 143.864 49.3447 143.867 47.8945V47.8939V47.8933V47.8927V47.8921V47.8915V47.8909V47.8902V47.8896C143.873 44.9915 143.879 42.0941 143.861 39.1992C143.828 34.0069 139.921 29.4705 135.089 28.9622C132.607 28.6677 130.105 29.3068 128.06 30.7576C126.015 32.2083 124.57 34.369 124.002 36.8271C123.748 37.9683 123.773 39.1776 123.798 40.3775V40.3778V40.3781V40.3784V40.3787V40.379V40.3793V40.3795V40.3798C123.806 40.7366 123.813 41.0925 123.813 41.4455V44.5773V48.906V51.1196C123.836 51.84 123.812 52.5611 123.743 53.2785C123.662 54.1782 123.26 55.0175 122.612 55.6396C121.919 56.175 121.058 56.4372 120.188 56.3774ZM81.0483 61.0125C83.5462 62.0632 86.2272 62.5973 88.933 62.5831V62.594C98.8243 62.8783 109.381 55.2975 109.451 42.1802C109.511 29.8444 99.9822 22.1543 89.8691 21.728C87.1669 21.5874 84.4642 21.9957 81.9209 22.9285C79.3776 23.8614 77.0453 25.3 75.062 27.1591C73.0787 29.0183 71.4847 31.2603 70.3742 33.7526C69.2636 36.2449 68.6592 38.9369 68.5966 41.6692C68.534 44.4016 69.0145 47.1189 70.0097 49.6604C71.0049 52.2019 72.4945 54.516 74.3905 56.4659C76.2866 58.4157 78.5505 59.9618 81.0483 61.0125ZM75.9412 42.0763C75.7681 34.9711 81.8446 28.9972 89.0088 28.959V28.9316C90.7376 28.9077 92.454 29.2311 94.0581 29.8829C95.6623 30.5347 97.1222 31.5019 98.3531 32.7285C99.584 33.955 100.561 35.4164 101.228 37.0277C101.895 38.639 102.239 40.3681 102.239 42.1146C102.225 45.5573 100.894 48.8613 98.5221 51.3341C96.1506 53.8069 92.9236 55.2567 89.5174 55.3795C82.2396 55.5489 76.136 50.067 75.9412 42.0763ZM185.935 41.9507C185.697 31.1288 195.075 21.0995 207.374 21.6625C217.655 22.1271 226.767 31.5606 226.491 42.4316C226.429 45.1919 225.822 47.9119 224.705 50.4317C223.588 52.9515 221.983 55.2202 219.985 57.1044C217.987 58.9886 215.636 60.4502 213.071 61.4033C210.506 62.3564 207.777 62.7817 205.047 62.6542C194.615 62.2224 185.822 52.9966 185.935 41.9835V41.9507ZM206.302 28.959C202.811 28.9123 199.443 30.2676 196.94 32.7272C194.437 35.1868 193.003 38.5495 192.953 42.0764C192.829 49.1816 198.819 55.3577 205.88 55.3796C213.385 55.3796 219.37 49.5423 219.375 42.1584C219.325 38.6721 217.932 35.3428 215.491 32.8773C213.05 30.4119 209.754 29.0044 206.302 28.9535V28.959ZM308.86 44.0714V26.4012L308.833 26.3739C308.833 24.337 308.84 22.2996 308.846 20.2621C308.86 16.1873 308.873 12.1124 308.833 8.04237C308.811 5.50635 307.351 3.98692 305.186 3.98692C302.946 3.99785 301.712 5.41343 301.712 8.07516V27.8113V41.6064C301.723 45.6345 301.837 49.362 304.596 52.5375C306.62 54.8415 309.464 56.2442 312.507 56.4399C315.278 56.6257 316.95 55.5326 317.161 53.3464C317.219 52.5722 317.029 51.7995 316.619 51.1428C316.209 50.4862 315.6 49.9806 314.883 49.7009C314.283 49.4268 313.633 49.284 312.984 49.1416C311.964 48.9176 310.948 48.6945 310.137 47.9628C309.06 46.99 308.86 45.4541 308.86 44.0714ZM284.558 38.9329V25.6953C284.558 23.2084 285.824 21.7929 287.956 21.7546C290.256 21.7163 291.663 23.1264 291.673 25.6515C291.695 34.5495 291.695 43.4474 291.673 52.3454C291.673 54.783 290.137 56.4008 288.005 56.3625C285.873 56.3243 284.58 54.7939 284.563 52.3945C284.545 49.4031 284.551 46.4116 284.557 43.4201L284.557 43.3752C284.56 41.8944 284.563 40.4136 284.563 38.9329H284.558ZM396.537 4.33174C394.54 4.38639 392.949 6.15177 392.949 8.4473H392.922V26.0082C391.898 25.6194 390.91 25.2035 389.941 24.7953C387.898 23.9354 385.937 23.1101 383.897 22.6468C373.421 20.2693 362.778 27.2816 360.484 37.8192C359.517 42.1839 359.992 46.7483 361.836 50.8147C363.68 54.881 366.791 58.2257 370.694 60.3373C378.069 64.4802 387.928 63.0865 394.194 56.7847C397.836 53.1392 400 48.6738 400 43.3722V8.39265C399.995 5.8129 398.658 4.27161 396.537 4.33174ZM375.13 30.3633C376.695 29.6984 378.374 29.3515 380.071 29.3421V29.3476C381.764 29.3323 383.442 29.658 385.008 30.3057C386.574 30.9534 387.997 31.9101 389.192 33.1199C390.388 34.3296 391.333 35.7681 391.971 37.3511C392.61 38.9342 392.93 40.6299 392.912 42.3393C392.912 49.6576 387.306 55.4566 380.212 55.4566C378.514 55.4659 376.832 55.1374 375.26 54.4899C373.688 53.8423 372.258 52.8883 371.051 51.6825C369.844 50.4766 368.884 49.0424 368.226 47.4618C367.568 45.8812 367.224 44.1851 367.215 42.4704C367.206 40.7557 367.531 39.056 368.172 37.4682C368.813 35.8805 369.758 34.4358 370.951 33.2168C372.145 31.9977 373.565 31.0281 375.13 30.3633ZM350.744 39.2159V26.1368C350.744 23.6719 349.494 22.2782 347.389 22.2399C345.116 22.2016 343.726 23.6008 343.72 26.0658C343.695 34.8581 343.695 43.6503 343.72 52.4426C343.72 54.8584 345.235 56.4489 347.34 56.4161C349.445 56.3833 350.728 54.8638 350.738 52.4918V39.1941L350.744 39.2159ZM327.714 54.3958C327.245 53.6858 326.994 52.851 326.994 51.997C326.994 50.8518 327.444 49.7536 328.246 48.9439C329.048 48.1341 330.135 47.6792 331.269 47.6792C332.114 47.6792 332.941 47.9324 333.644 48.4069C334.347 48.8813 334.894 49.5557 335.218 50.3446C335.542 51.1336 335.626 52.0018 335.461 52.8394C335.296 53.6769 334.889 54.4463 334.291 55.0501C333.694 55.654 332.932 56.0652 332.103 56.2318C331.273 56.3984 330.414 56.3129 329.633 55.9861C328.852 55.6593 328.184 55.1059 327.714 54.3958Z" fill="black"/>
<path d="M129.282 85.1429C130.34 85.1429 131.258 85.3567 132.035 85.7842C132.829 86.1947 133.44 86.8275 133.87 87.6826C134.317 88.5377 134.54 89.6151 134.54 90.9149V98.7391H132.779V91.0945C132.779 89.675 132.448 88.6061 131.787 87.8878C131.142 87.1524 130.225 86.7847 129.034 86.7847C128.142 86.7847 127.364 86.9814 126.703 87.3747C126.058 87.751 125.554 88.3068 125.19 89.0422C124.843 89.7605 124.67 90.6327 124.67 91.6588V98.7391H122.909V91.0945C122.909 89.675 122.578 88.6061 121.917 87.8878C121.255 87.1524 120.33 86.7847 119.139 86.7847C118.263 86.7847 117.494 86.9814 116.833 87.3747C116.172 87.751 115.659 88.3068 115.295 89.0422C114.948 89.7605 114.774 90.6327 114.774 91.6588V98.7391H113.014V85.2712H114.7V88.9139L114.427 88.2726C114.824 87.2978 115.461 86.5367 116.337 85.9895C117.23 85.4251 118.279 85.1429 119.486 85.1429C120.759 85.1429 121.842 85.4764 122.735 86.1434C123.628 86.7933 124.207 87.7766 124.471 89.0935L123.777 88.8113C124.157 87.7168 124.827 86.836 125.786 86.169C126.761 85.485 127.927 85.1429 129.282 85.1429Z" fill="black"/>
<path d="M144.845 98.8674C143.49 98.8674 142.299 98.5766 141.274 97.9952C140.249 97.3966 139.447 96.5842 138.869 95.5581C138.29 94.5149 138.001 93.3263 138.001 91.9923C138.001 90.6583 138.273 89.4783 138.819 88.4522C139.381 87.426 140.142 86.6222 141.101 86.0408C142.076 85.4422 143.167 85.1429 144.374 85.1429C145.598 85.1429 146.681 85.4336 147.623 86.0151C148.582 86.5795 149.334 87.3833 149.88 88.4265C150.425 89.4526 150.698 90.6412 150.698 91.9923C150.698 92.0778 150.69 92.1719 150.673 92.2745C150.673 92.36 150.673 92.4541 150.673 92.5567H139.34V91.1971H149.731L149.036 91.7358C149.036 90.761 148.83 89.8973 148.417 89.1448C148.02 88.3752 147.474 87.7766 146.78 87.3491C146.085 86.9215 145.283 86.7078 144.374 86.7078C143.481 86.7078 142.679 86.9215 141.969 87.3491C141.258 87.7766 140.704 88.3752 140.307 89.1448C139.91 89.9144 139.712 90.7952 139.712 91.7871V92.0693C139.712 93.0954 139.927 94.0018 140.357 94.7885C140.803 95.5581 141.415 96.1652 142.192 96.6099C142.985 97.0374 143.886 97.2512 144.895 97.2512C145.689 97.2512 146.424 97.1058 147.102 96.8151C147.797 96.5244 148.392 96.0797 148.888 95.4811L149.88 96.6612C149.301 97.3795 148.574 97.9267 147.697 98.303C146.838 98.6792 145.887 98.8674 144.845 98.8674Z" fill="black"/>
<path d="M170.551 85.1429C171.609 85.1429 172.526 85.3567 173.303 85.7842C174.097 86.1947 174.709 86.8275 175.139 87.6826C175.585 88.5377 175.808 89.6151 175.808 90.9149V98.7391H174.047V91.0945C174.047 89.675 173.717 88.6061 173.055 87.8878C172.411 87.1524 171.493 86.7847 170.303 86.7847C169.41 86.7847 168.633 86.9814 167.972 87.3747C167.327 87.751 166.822 88.3068 166.459 89.0422C166.112 89.7605 165.938 90.6327 165.938 91.6588V98.7391H164.177V91.0945C164.177 89.675 163.846 88.6061 163.185 87.8878C162.524 87.1524 161.598 86.7847 160.408 86.7847C159.531 86.7847 158.763 86.9814 158.101 87.3747C157.44 87.751 156.927 88.3068 156.564 89.0422C156.216 89.7605 156.043 90.6327 156.043 91.6588V98.7391H154.282V85.2712H155.968V88.9139L155.696 88.2726C156.092 87.2978 156.729 86.5367 157.605 85.9895C158.498 85.4251 159.548 85.1429 160.755 85.1429C162.028 85.1429 163.111 85.4764 164.004 86.1434C164.896 86.7933 165.475 87.7766 165.74 89.0935L165.045 88.8113C165.425 87.7168 166.095 86.836 167.054 86.169C168.029 85.485 169.195 85.1429 170.551 85.1429Z" fill="black"/>
<path d="M187.304 98.8674C186.163 98.8674 185.138 98.6023 184.229 98.0721C183.32 97.5248 182.6 96.7381 182.071 95.712C181.542 94.6859 181.278 93.446 181.278 91.9923C181.278 90.5215 181.542 89.2816 182.071 88.2726C182.617 87.2465 183.344 86.4683 184.254 85.9382C185.163 85.408 186.18 85.1429 187.304 85.1429C188.544 85.1429 189.652 85.4336 190.627 86.0151C191.619 86.5795 192.396 87.3747 192.958 88.4009C193.521 89.427 193.802 90.6241 193.802 91.9923C193.802 93.3434 193.521 94.5405 192.958 95.5838C192.396 96.6099 191.619 97.4137 190.627 97.9952C189.652 98.5766 188.544 98.8674 187.304 98.8674ZM180.583 98.7391V79.7044H182.344V89.2474L182.096 91.9667L182.27 94.6859V98.7391H180.583ZM187.18 97.2512C188.106 97.2512 188.933 97.0374 189.66 96.6099C190.388 96.1652 190.966 95.5496 191.396 94.7629C191.826 93.9591 192.041 93.0355 192.041 91.9923C192.041 90.932 191.826 90.0085 191.396 89.2218C190.966 88.4351 190.388 87.8279 189.66 87.4004C188.933 86.9557 188.106 86.7334 187.18 86.7334C186.254 86.7334 185.419 86.9557 184.675 87.4004C183.948 87.8279 183.369 88.4351 182.939 89.2218C182.526 90.0085 182.319 90.932 182.319 91.9923C182.319 93.0355 182.526 93.9591 182.939 94.7629C183.369 95.5496 183.948 96.1652 184.675 96.6099C185.419 97.0374 186.254 97.2512 187.18 97.2512Z" fill="black"/>
<path d="M202.921 98.8674C201.566 98.8674 200.375 98.5766 199.35 97.9952C198.325 97.3966 197.523 96.5842 196.945 95.5581C196.366 94.5149 196.077 93.3263 196.077 91.9923C196.077 90.6583 196.349 89.4783 196.895 88.4522C197.457 87.426 198.218 86.6222 199.177 86.0408C200.152 85.4422 201.243 85.1429 202.45 85.1429C203.674 85.1429 204.757 85.4336 205.699 86.0151C206.658 86.5795 207.41 87.3833 207.956 88.4265C208.501 89.4526 208.774 90.6412 208.774 91.9923C208.774 92.0778 208.766 92.1719 208.749 92.2745C208.749 92.36 208.749 92.4541 208.749 92.5567H197.416V91.1971H207.807L207.113 91.7358C207.113 90.761 206.906 89.8973 206.493 89.1448C206.096 88.3752 205.55 87.7766 204.856 87.3491C204.161 86.9215 203.359 86.7078 202.45 86.7078C201.557 86.7078 200.755 86.9215 200.045 87.3491C199.334 87.7766 198.78 88.3752 198.383 89.1448C197.986 89.9144 197.788 90.7952 197.788 91.7871V92.0693C197.788 93.0954 198.003 94.0018 198.433 94.7885C198.879 95.5581 199.491 96.1652 200.268 96.6099C201.061 97.0374 201.962 97.2512 202.971 97.2512C203.765 97.2512 204.5 97.1058 205.178 96.8151C205.873 96.5244 206.468 96.0797 206.964 95.4811L207.956 96.6612C207.377 97.3795 206.65 97.9267 205.773 98.303C204.914 98.6792 203.963 98.8674 202.921 98.8674Z" fill="black"/>
<path d="M212.358 98.7391V85.2712H214.044V88.9396L213.871 88.2983C214.235 87.2721 214.846 86.494 215.706 85.9638C216.566 85.4165 217.632 85.1429 218.905 85.1429V86.913C218.839 86.913 218.773 86.913 218.707 86.913C218.641 86.8959 218.575 86.8873 218.508 86.8873C217.136 86.8873 216.061 87.3234 215.284 88.1956C214.507 89.0507 214.119 90.2735 214.119 91.864V98.7391H212.358Z" fill="black"/>
<path d="M234.11 98.8674C232.853 98.8674 231.721 98.5766 230.712 97.9952C229.72 97.3966 228.935 96.5842 228.356 95.5581C227.777 94.5149 227.488 93.3263 227.488 91.9923C227.488 90.6412 227.777 89.4526 228.356 88.4265C228.935 87.4004 229.72 86.5966 230.712 86.0151C231.704 85.4336 232.837 85.1429 234.11 85.1429C235.399 85.1429 236.54 85.4336 237.532 86.0151C238.54 86.5966 239.326 87.4004 239.888 88.4265C240.467 89.4526 240.756 90.6412 240.756 91.9923C240.756 93.3263 240.467 94.5149 239.888 95.5581C239.326 96.5842 238.54 97.3966 237.532 97.9952C236.523 98.5766 235.383 98.8674 234.11 98.8674ZM234.11 97.2512C235.052 97.2512 235.887 97.0374 236.614 96.6099C237.342 96.1652 237.912 95.5496 238.326 94.7629C238.755 93.9591 238.97 93.0355 238.97 91.9923C238.97 90.932 238.755 90.0085 238.326 89.2218C237.912 88.4351 237.342 87.8279 236.614 87.4004C235.887 86.9557 235.06 86.7334 234.134 86.7334C233.209 86.7334 232.382 86.9557 231.654 87.4004C230.927 87.8279 230.348 88.4351 229.918 89.2218C229.489 90.0085 229.274 90.932 229.274 91.9923C229.274 93.0355 229.489 93.9591 229.918 94.7629C230.348 95.5496 230.927 96.1652 231.654 96.6099C232.382 97.0374 233.2 97.2512 234.11 97.2512Z" fill="black"/>
<path d="M244.648 98.7391V83.5781C244.648 82.3809 244.987 81.4147 245.665 80.6793C246.343 79.9439 247.318 79.5762 248.591 79.5762C249.087 79.5762 249.567 79.6446 250.03 79.7814C250.493 79.9182 250.881 80.132 251.195 80.4227L250.6 81.7823C250.352 81.56 250.063 81.3975 249.732 81.2949C249.402 81.1752 249.046 81.1154 248.666 81.1154C247.922 81.1154 247.351 81.3291 246.955 81.7567C246.558 82.1842 246.359 82.817 246.359 83.655V85.7073L246.409 86.5538V98.7391H244.648ZM242.317 86.7847V85.2712H250.377V86.7847H242.317Z" fill="black"/>
<path fill-rule="evenodd" clip-rule="evenodd" d="M304.477 94.9694C306.787 95.1769 308.258 94.9694 310.779 93.9574C314.664 92.3027 317.396 88.2798 316.768 85.6889C316.455 84.348 314.875 83.9381 313.506 83.8318C311.935 83.6859 310.355 83.6521 308.778 83.7306L304.477 94.9694ZM260.893 98.375H268.662L279.06 86.3974L281.684 98.375H306.051C310.707 98.375 314.242 98.1726 316.979 97.1403C320.967 95.7942 324.121 93.5981 326.009 90.0104C328 86.4986 327.794 84.0191 326.426 82.0557C325.067 80.1935 321.913 79.5762 317.499 79.5762H297.032L297.665 83.5029L292.622 97.1656L288.949 79.6774C288.949 79.6774 282.775 79.6167 281.272 79.6774C279.77 79.7381 278.268 80.1429 276.549 81.9494L260.893 98.375Z" fill="black"/>
<path fill-rule="evenodd" clip-rule="evenodd" d="M324.748 98.375H336.16L343.327 79.5762H332.018L324.836 98.375H324.748Z" fill="black"/>
<path fill-rule="evenodd" clip-rule="evenodd" d="M338.893 98.375L345.581 81.1398L346.008 79.5762H368.292C372.866 79.5762 374.98 83.0627 371.893 86.5694L367.86 90.7441L370.833 96.275L372.109 98.375H359.802L356.407 90.4304L362.992 83.3461L356.201 83.5434L350.361 98.375H338.893Z" fill="black"/>
<path fill-rule="evenodd" clip-rule="evenodd" d="M367.004 98.3747H375.03L385.835 85.9721L388.408 98.3747H399.845L395.765 79.6519H387.965C386.581 79.6519 384.95 79.9605 383.149 81.7519L367.004 98.3747Z" fill="black"/>
<path fill-rule="evenodd" clip-rule="evenodd" d="M276.241 89.6455L269.311 97.6255L294.707 89.6455H276.241Z" fill="#FFDD00"/>
<path d="M293.136 110.555V103.031H298.61V104.7H295.086V106.021H298.142V107.59H295.086V110.555H293.136Z" fill="black"/>
<path d="M311.509 103.036H309.559V110.555H311.509V103.036Z" fill="black"/>
<path d="M327.573 110.555L324.785 106.143V110.555H322.938V103.031H324.8L327.599 107.458V103.031H329.446V110.555H327.573Z" fill="black"/>
<path d="M345.626 110.565L345.076 108.966H342.591L342.014 110.565H340.028L342.92 103.045H344.803L347.664 110.565H345.626ZM344.535 107.448L343.851 105.459L343.136 107.438L344.535 107.448Z" fill="black"/>
<path d="M362.878 110.555L360.084 106.143V110.555H358.237V103.031H360.1L362.899 107.458V103.031H364.746V110.555H362.878Z" fill="black"/>
<path d="M379.621 110.717C379.078 110.725 378.54 110.622 378.041 110.413C377.588 110.226 377.182 109.942 376.853 109.583C376.525 109.223 376.273 108.801 376.112 108.344C375.94 107.856 375.855 107.342 375.86 106.826C375.854 106.299 375.939 105.776 376.112 105.277C376.273 104.814 376.524 104.385 376.853 104.017C377.182 103.653 377.587 103.363 378.041 103.167C378.923 102.81 379.903 102.766 380.814 103.041C381.184 103.152 381.531 103.323 381.843 103.547C382.148 103.783 382.402 104.078 382.589 104.412C382.791 104.773 382.917 105.171 382.96 105.581V105.768H381.061V105.626C381.039 105.472 380.985 105.324 380.902 105.191V105.191C380.815 105.056 380.708 104.934 380.583 104.832C380.449 104.733 380.302 104.653 380.146 104.594C379.98 104.537 379.806 104.508 379.631 104.508C379.358 104.494 379.086 104.55 378.841 104.67C378.597 104.791 378.388 104.972 378.237 105.196C378.09 105.421 377.984 105.669 377.923 105.93C377.855 106.217 377.82 106.511 377.82 106.805C377.821 107.088 377.855 107.37 377.923 107.645C377.985 107.899 378.091 108.141 378.237 108.359C378.379 108.568 378.569 108.741 378.792 108.865C379.052 108.995 379.34 109.06 379.631 109.052C379.821 109.063 380.011 109.035 380.189 108.967C380.366 108.9 380.527 108.796 380.66 108.662C380.925 108.362 381.087 107.986 381.123 107.59V107.438H383.022V107.625C382.983 108.065 382.87 108.496 382.687 108.9C382.515 109.268 382.272 109.6 381.972 109.877C381.673 110.146 381.323 110.356 380.943 110.494C380.52 110.647 380.072 110.722 379.621 110.717V110.717Z" fill="black"/>
<path d="M394.114 110.555V103.031H399.918V104.7H396.064V105.9H399.604V107.468H396.064V108.89H400V110.555H394.114Z" fill="black"/>
</svg>
